<svg xmlns="http://www.w3.org/2000/svg" viewBox="0 0 64 64" role="img" aria-labelledby="favicon-title">
  <title id="favicon-title">USA flag icon</title>
  <defs>
    <clipPath id="flag-clip">
      <rect x="4" y="4" width="56" height="56" rx="14" ry="14" />
    </clipPath>
  </defs>
  <rect x="4" y="4" width="56" height="56" rx="14" ry="14" fill="#ffffff" />
  <g clip-path="url(#flag-clip)">
    <rect x="4" y="4" width="56" height="56" fill="#ffffff" />
    <rect x="4" y="4" width="56" height="4.31" fill="#b22234" />
    <rect x="4" y="12.62" width="56" height="4.31" fill="#b22234" />
    <rect x="4" y="21.23" width="56" height="4.31" fill="#b22234" />
    <rect x="4" y="29.85" width="56" height="4.31" fill="#b22234" />
    <rect x="4" y="38.46" width="56" height="4.31" fill="#b22234" />
    <rect x="4" y="47.08" width="56" height="4.31" fill="#b22234" />
    <rect x="4" y="55.69" width="56" height="4.31" fill="#b22234" />
    <rect x="4" y="4" width="28" height="30.15" fill="#3c3b6e" />
    <g fill="#ffffff">
      <circle cx="9.5" cy="9.25" r="1.25" />
      <circle cx="16" cy="9.25" r="1.25" />
      <circle cx="22.5" cy="9.25" r="1.25" />
      <circle cx="29" cy="9.25" r="1.25" />
      <circle cx="12.75" cy="14.5" r="1.25" />
      <circle cx="19.25" cy="14.5" r="1.25" />
      <circle cx="25.75" cy="14.5" r="1.25" />
      <circle cx="9.5" cy="19.75" r="1.25" />
      <circle cx="16" cy="19.75" r="1.25" />
      <circle cx="22.5" cy="19.75" r="1.25" />
      <circle cx="29" cy="19.75" r="1.25" />
      <circle cx="12.75" cy="25" r="1.25" />
      <circle cx="19.25" cy="25" r="1.25" />
      <circle cx="25.75" cy="25" r="1.25" />
      <circle cx="9.5" cy="30.25" r="1.25" />
      <circle cx="16" cy="30.25" r="1.25" />
      <circle cx="22.5" cy="30.25" r="1.25" />
      <circle cx="29" cy="30.25" r="1.25" />
    </g>
  </g>
  <rect x="4" y="4" width="56" height="56" rx="14" ry="14" fill="none" stroke="#d7dbe4" stroke-width="1.5" />
</svg>
